<svg xmlns="http://www.w3.org/2000/svg" fill="none" viewBox="0 0 24 24" height="48" width="48"><path stroke="#000000" stroke-width="1.5" d="M4.61481 11.3779L5.5 22.0002H18.5L19.3842 11.3894"></path><path stroke="#000000" stroke-width="1.5" d="M9.5 11.5V22"></path><path stroke="#000000" stroke-width="1.5" d="M14.5 11.5V22"></path><path stroke="#000000" stroke-width="1.5" d="M2 8C2 9.933 3.567 11.5 5.5 11.5H18.5C20.433 11.5 22 9.933 22 8C22 6.067 20.433 4.5 18.5 4.5L18.4646 4.50018C18.222 2.80394 16.7633 1.5 15 1.5C13.7268 1.5 12.6124 2.17979 12 3.19621C11.3876 2.17979 10.2732 1.5 9 1.5C7.2367 1.5 5.77796 2.80394 5.53542 4.50018L5.5 4.5C3.567 4.5 2 6.067 2 8Z"></path></svg>